<svg width="1000" height="1064" viewBox="0 0 1000 1064" fill="none" xmlns="http://www.w3.org/2000/svg">
<rect width="1000" height="1064" fill="white"/>
<path d="M240.682 285.963C237.899 264.047 217.878 248.536 195.963 251.318C174.047 254.101 158.536 274.122 161.318 296.037L240.682 285.963ZM161.318 296.037L258.746 1063.52L338.109 1053.45L240.682 285.963L161.318 296.037Z" fill="#FF0000"/>
<path d="M758.746 285.963C761.528 264.047 781.55 248.536 803.465 251.318C825.381 254.101 840.891 274.122 838.109 296.037L758.746 285.963ZM838.109 296.037L740.681 1063.52L661.318 1053.45L758.746 285.963L838.109 296.037Z" fill="#FF0000"/>
<path d="M414 315L414 924" stroke="#FF0000" stroke-width="80" stroke-linecap="round"/>
<path d="M582 315L582 924" stroke="#FF0000" stroke-width="80" stroke-linecap="round"/>
<line x1="259" y1="1024" x2="741" y2="1024" stroke="#FF0000" stroke-width="80"/>
<path d="M100 187H900" stroke="#FF0000" stroke-width="80" stroke-linecap="round"/>
<path d="M310 56H690" stroke="#FF0000" stroke-width="80" stroke-linecap="round"/>
</svg>
