<?xml version="1.0" encoding="UTF-8" standalone="no"?>
<!-- Created with Inkscape (http://www.inkscape.org/) -->

<svg
   width="25.100065mm"
   height="20.360319mm"
   viewBox="0 0 25.100068 20.360322"
   version="1.1"
   id="svg2044"
   inkscape:version="0.92.5 (2060ec1f9f, 2020-04-08)"
   sodipodi:docname="ave.svg">
  <defs
     id="defs2038" />
  <sodipodi:namedview
     id="base"
     pagecolor="#ffffff"
     bordercolor="#666666"
     borderopacity="1.0"
     inkscape:pageopacity="0.0"
     inkscape:pageshadow="2"
     inkscape:zoom="0.35"
     inkscape:cx="-402.46971"
     inkscape:cy="-207.18636"
     inkscape:document-units="mm"
     inkscape:current-layer="layer1"
     showgrid="false"
     fit-margin-top="1"
     fit-margin-right="1"
     fit-margin-bottom="1"
     fit-margin-left="1"
     inkscape:window-width="1848"
     inkscape:window-height="1016"
     inkscape:window-x="72"
     inkscape:window-y="27"
     inkscape:window-maximized="1" />
  <metadata
     id="metadata2041">
    <rdf:RDF>
      <cc:Work
         rdf:about="">
        <dc:format>image/svg+xml</dc:format>
        <dc:type
           rdf:resource="http://purl.org/dc/dcmitype/StillImage" />
        <dc:title></dc:title>
      </cc:Work>
    </rdf:RDF>
  </metadata>
  <g
     inkscape:label="Capa 1"
     inkscape:groupmode="layer"
     id="layer1"
     transform="translate(-26.744841,-64.363518)">
    <g
       transform="matrix(0.35277777,0,0,-0.35277777,27.744841,181.59074)"
       id="g1759">
      <path
         d="m 50.4699,304.406 c -0.6418,0.426 -1.4914,0.972 -2.5078,1.586 -0.4855,0.288 -1.1277,0.138 -1.4301,-0.355 -0.2937,-0.492 -0.1355,-1.134 0.3563,-1.429 0.989,-0.595 1.8097,-1.125 2.4359,-1.538 1.368,-0.904 2.702,-2.145 2.9207,-2.389 -0.0418,-0.029 -0.2597,-0.114 -0.6636,-0.121 l -17.3219,-0.048 c 0.0101,1.485 0.016,2.977 0.016,4.473 0.0019,1.791 -0.0039,3.577 -0.0145,5.352 1.4352,-0.277 2.8571,-0.658 4.2356,-1.138 1.9305,-0.671 3.8078,-1.547 5.5758,-2.604 0.4871,-0.295 1.1289,-0.135 1.4281,0.358 0.2961,0.494 0.1355,1.133 -0.3578,1.427 -1.8914,1.132 -3.8977,2.069 -5.9633,2.788 -1.8852,0.654 -3.841,1.135 -5.8152,1.43 -0.311,0.055 -0.6078,-0.042 -0.8368,-0.243 -0.23,-0.2 -0.3597,-0.49 -0.3582,-0.793 0.0192,-2.18 0.0262,-4.37 0.0243,-6.577 0,-1.847 -0.0098,-3.682 -0.0243,-5.507 -0.0015,-0.279 0.1082,-0.546 0.3036,-0.743 0.1949,-0.196 0.4617,-0.307 0.7375,-0.307 h 0.0019 l 18.3934,0.05 c 0.5906,0.011 1.4148,0.13 1.9894,0.619 0.0926,0.077 0.3973,0.372 0.5192,0.809 0.0468,0.135 0.1461,0.498 0.0441,0.987 -0.3285,1.588 -2.9051,3.397 -3.6883,3.913"
         style="fill:#363536;fill-opacity:1;fill-rule:nonzero;stroke:none;stroke-width:0.1"
         id="path108"
         inkscape:connector-curvature="0" />
      <path
         d="m 61.9871,293.481 c -4e-4,0 -8e-4,-10e-4 -8e-4,-10e-4 l -0.0011,-0.001 c 0,0 0,0.002 0.0019,0.002"
         style="fill:#363536;fill-opacity:1;fill-rule:nonzero;stroke:none;stroke-width:0.1"
         id="path110"
         inkscape:connector-curvature="0" />
      <path
         d="m 28.7484,300.175 c 0,-0.16 -0.1332,-0.293 -0.2929,-0.293 h -8.9129 c -0.1613,0 -0.2934,0.133 -0.2934,0.293 v 9.889 c 0,0.161 0.1321,0.293 0.2934,0.293 h 8.9129 c 0.1597,0 0.2929,-0.132 0.2929,-0.293 z m -0.2929,12.264 h -8.9129 c -1.3102,0 -2.375,-1.066 -2.375,-2.375 v -9.889 c 0,-1.309 1.0648,-2.374 2.375,-2.374 h 8.9129 c 1.309,0 2.3742,1.065 2.3742,2.374 v 9.889 c 0,1.309 -1.0652,2.375 -2.3742,2.375"
         style="fill:#363536;fill-opacity:1;fill-rule:nonzero;stroke:none;stroke-width:0.1"
         id="path112"
         inkscape:connector-curvature="0" />
      <path
         d="m 13.7465,300.175 c 0,-0.16 -0.1332,-0.293 -0.293,-0.293 H 4.54023 c -0.16093,0 -0.29296,0.133 -0.29296,0.293 v 9.889 c 0,0.161 0.13203,0.293 0.29296,0.293 h 8.91327 c 0.1598,0 0.293,-0.132 0.293,-0.293 z m -0.293,12.264 H 4.54023 c -1.30898,0 -2.375,-1.066 -2.375,-2.375 v -9.889 c 0,-1.309 1.06602,-2.374 2.375,-2.374 h 8.91327 c 1.309,0 2.375,1.065 2.375,2.374 v 9.889 c 0,1.309 -1.066,2.375 -2.375,2.375"
         style="fill:#363536;fill-opacity:1;fill-rule:nonzero;stroke:none;stroke-width:0.1"
         id="path114"
         inkscape:connector-curvature="0" />
      <path
         d="m 61.9871,293.481 c -0.0019,0 -0.0019,-0.002 -0.0019,-0.002 l 0.0011,0.001 c 0,0 4e-4,10e-4 8e-4,10e-4 z M 7.98477,290.97 c -0.01211,-0.091 -0.02774,-0.181 -0.02774,-0.275 0,-1.15 0.93203,-2.082 2.08207,-2.082 1.1492,0 2.0804,0.931 2.082,2.079 8e-4,-1.148 0.9336,-2.079 2.0812,-2.079 1.15,0 2.0821,0.932 2.0821,2.082 0,0.094 -0.0156,0.184 -0.0278,0.275 h 25.3625 c -0.0125,-0.091 -0.0281,-0.181 -0.0281,-0.275 0,-1.15 0.9332,-2.082 2.082,-2.082 1.15,0 2.0821,0.932 2.0821,2.082 0,0.094 -0.0156,0.184 -0.0278,0.275 h 0.0559 c -0.0121,-0.091 -0.0281,-0.181 -0.0281,-0.275 0,-1.15 0.9324,-2.082 2.082,-2.082 1.15,0 2.082,0.932 2.082,2.082 0,0.094 -0.0156,0.184 -0.0277,0.275 h 10.6606 0.0324 c 0.8988,0.028 2.1367,0.242 2.966,1.138 0.0809,0.095 0.7906,0.989 0.6098,2.461 -0.095,0.759 -1.3231,7.616 -14.8688,14.723 -5.9273,3.111 -15.4094,6.931 -26.9281,7.453 -1.2891,0.061 -3.5985,0.05 -8.2031,0.054 l -1.6551,-0.002 C 7.49063,316.792 3.23125,316.747 0,316.699 v -2.083 c 3.22734,0.048 7.49219,0.094 12.507,0.099 l 1.6551,0.002 c 4.4301,0.003 6.8613,0.007 8.1063,-0.05 11.7238,-0.535 21.357,-4.751 26.0546,-7.218 12.8274,-6.73 13.7641,-13.077 13.7719,-13.135 0.0071,-0.053 0.002,-0.094 0.0035,-0.144 H 0 v -0.897 -0.496 -1.683 c 0.251953,-0.059 0.496484,-0.102 0.719141,-0.124 H 7.98477"
         style="fill:#363536;fill-opacity:1;fill-rule:nonzero;stroke:none;stroke-width:0.1"
         id="path116"
         inkscape:connector-curvature="0" />
      <path
         d="M 64.4633,288.613 H 0.160156 c -0.030078,0 -0.048828,-0.03 -0.0792966,-0.033 v -2.016 C 0.111328,286.562 0.130078,286.531 0.160156,286.531 H 64.4633 c 0.5621,0 1.0172,0.466 1.0172,1.041 0,0.574 -0.4551,1.041 -1.0172,1.041"
         style="fill:#363536;fill-opacity:1;fill-rule:nonzero;stroke:none;stroke-width:0.1"
         id="path118"
         inkscape:connector-curvature="0" />
      <path
         d="M 16.8172,325.3 H 4.32617 c -0.575,0 -1.04101,-0.466 -1.04101,-1.041 0,-0.576 0.46601,-1.041 1.04101,-1.041 H 16.8172 c 0.575,0 1.041,0.465 1.041,1.041 0,0.575 -0.466,1.041 -1.041,1.041"
         style="fill:#363536;fill-opacity:1;fill-rule:nonzero;stroke:none;stroke-width:0.1"
         id="path120"
         inkscape:connector-curvature="0" />
      <path
         d="M 41.7992,321.136 H 29.3078 c -0.5746,0 -1.0406,-0.466 -1.0406,-1.041 0,-0.575 0.466,-1.041 1.0406,-1.041 h 12.4914 c 0.5746,0 1.041,0.466 1.041,1.041 0,0.575 -0.4664,1.041 -1.041,1.041"
         style="fill:#363536;fill-opacity:1;fill-rule:nonzero;stroke:none;stroke-width:0.1"
         id="path122"
         inkscape:connector-curvature="0" />
      <path
         d="m 50.1262,279.5 h -12.491 c -0.5747,0 -1.0411,-0.467 -1.0411,-1.041 0,-0.575 0.4664,-1.041 1.0411,-1.041 h 12.491 c 0.5758,0 1.0414,0.466 1.0414,1.041 0,0.574 -0.4656,1.041 -1.0414,1.041"
         style="fill:#363536;fill-opacity:1;fill-rule:nonzero;stroke:none;stroke-width:0.1"
         id="path124"
         inkscape:connector-curvature="0" />
      <path
         d="m 50.1262,316.973 h -4.1641 c -0.575,0 -1.0406,-0.466 -1.0406,-1.041 0,-0.576 0.4656,-1.041 1.0406,-1.041 h 4.1641 c 0.5758,0 1.0414,0.465 1.0414,1.041 0,0.575 -0.4656,1.041 -1.0414,1.041"
         style="fill:#363536;fill-opacity:1;fill-rule:nonzero;stroke:none;stroke-width:0.1"
         id="path126"
         inkscape:connector-curvature="0" />
      <path
         d="m 20.9809,283.663 h -4.1641 c -0.5754,0 -1.041,-0.466 -1.041,-1.041 0,-0.575 0.4656,-1.04 1.041,-1.04 h 4.1641 c 0.5746,0 1.041,0.465 1.041,1.04 0,0.575 -0.4664,1.041 -1.041,1.041"
         style="fill:#363536;fill-opacity:1;fill-rule:nonzero;stroke:none;stroke-width:0.1"
         id="path128"
         inkscape:connector-curvature="0" />
      <path
         d="m 50.1262,329.463 h -8.327 c -0.5746,0 -1.041,-0.465 -1.041,-1.041 0,-0.574 0.4664,-1.041 1.041,-1.041 h 8.327 c 0.5758,0 1.0414,0.467 1.0414,1.041 0,0.576 -0.4656,1.041 -1.0414,1.041"
         style="fill:#363536;fill-opacity:1;fill-rule:nonzero;stroke:none;stroke-width:0.1"
         id="path130"
         inkscape:connector-curvature="0" />
    </g>
  </g>
</svg>
